<svg width="371" height="577" viewBox="0 0 371 577" fill="none" xmlns="http://www.w3.org/2000/svg">
<path fill-rule="evenodd" clip-rule="evenodd" d="M68.339 26C68.339 12.1929 79.5319 1 93.339 1H277.644C291.451 1 302.644 12.1929 302.644 26V76.4237C302.644 81.9466 298.167 86.4237 292.644 86.4237H78.339C72.8161 86.4237 68.339 81.9466 68.339 76.4237V26ZM0 151.068C0 123.454 22.3858 101.068 50 101.068H87.8644V88.8644H283.119V101.068H320.983C348.597 101.068 370.983 123.454 370.983 151.068V562C370.983 570.284 364.267 577 355.983 577H15C6.71571 577 0 570.284 0 562V151.068Z" fill="#2D2D2D"/>
<rect y="185" width="371" height="309" fill="#879CB1"/>
<rect x="47" y="282" width="287" height="110" rx="25" fill="#2D2D2D"/>
<path d="M96.3 309.7H96.2C94.8667 315.767 93.5333 321.767 92.2 327.7C90.9333 333.567 89.6333 339.533 88.3 345.6H104L96.3 309.7ZM82.2 371.9H75.4L91.4 301.9H100.9L116.9 371.9H110.2L105.8 352.8H86.5L82.2 371.9ZM149.889 344.6L162.889 302H172.589V372H165.989V314.9H165.889L154.389 351.8H144.889L133.489 315.1V372H126.889V302H136.689L149.489 344.6H149.889ZM187.827 302H194.327V372H187.827V302ZM249.906 302V372H239.306L216.006 314.9H215.906V372H209.506V302H217.706L243.206 363.9H243.406V302H249.906ZM296.273 320C296.273 317.533 295.806 315.567 294.873 314.1C293.939 312.567 292.773 311.4 291.373 310.6C290.039 309.733 288.639 309.167 287.173 308.9C285.706 308.633 284.473 308.5 283.473 308.5C282.473 308.5 281.239 308.667 279.773 309C278.306 309.267 276.906 309.833 275.573 310.7C274.239 311.5 273.073 312.667 272.073 314.2C271.139 315.667 270.673 317.633 270.673 320.1V354.5C270.673 357.033 271.139 359.033 272.073 360.5C273.073 361.9 274.239 363 275.573 363.8C276.906 364.533 278.306 365 279.773 365.2C281.239 365.4 282.473 365.5 283.473 365.5C284.473 365.5 285.706 365.4 287.173 365.2C288.639 364.933 290.039 364.433 291.373 363.7C292.773 362.9 293.939 361.8 294.873 360.4C295.806 358.933 296.273 356.967 296.273 354.5V320ZM302.973 354.5C302.973 355.967 302.673 357.767 302.073 359.9C301.539 361.967 300.506 363.967 298.973 365.9C297.506 367.833 295.506 369.5 292.973 370.9C290.439 372.233 287.239 372.9 283.373 372.9C279.573 372.9 276.439 372.233 273.973 370.9C271.506 369.5 269.506 367.833 267.973 365.9C266.506 363.967 265.473 361.967 264.873 359.9C264.273 357.767 263.973 355.967 263.973 354.5V320.1C263.973 318.633 264.239 316.833 264.773 314.7C265.373 312.5 266.406 310.4 267.873 308.4C269.339 306.4 271.339 304.7 273.873 303.3C276.406 301.833 279.606 301.1 283.473 301.1C287.273 301.1 290.406 301.8 292.873 303.2C295.406 304.6 297.406 306.3 298.873 308.3C300.406 310.3 301.473 312.4 302.073 314.6C302.673 316.733 302.973 318.533 302.973 320V354.5Z" fill="white"/>
<line x1="90.7902" y1="1.03089" x2="98.1984" y2="85.7074" stroke="white" stroke-width="3"/>
<line x1="120.79" y1="1.03089" x2="128.198" y2="85.7074" stroke="white" stroke-width="3"/>
<line x1="150.79" y1="1.03089" x2="158.198" y2="85.7074" stroke="white" stroke-width="3"/>
<line x1="180.79" y1="1.03089" x2="188.198" y2="85.7074" stroke="white" stroke-width="3"/>
<line x1="210.79" y1="1.03089" x2="218.198" y2="85.7074" stroke="white" stroke-width="3"/>
<line x1="240.79" y1="1.03089" x2="248.198" y2="85.7074" stroke="white" stroke-width="3"/>
<line x1="270.79" y1="1.03089" x2="278.198" y2="85.7074" stroke="white" stroke-width="3"/>
<path d="M62 277H319.008" stroke="white" stroke-width="5" stroke-linecap="round"/>
<path d="M62 397H319.008" stroke="white" stroke-width="5" stroke-linecap="round"/>
</svg>
