<svg width="426" height="536" viewBox="0 0 426 536" fill="none" xmlns="http://www.w3.org/2000/svg">
<path d="M2 154C2 115.34 33.3401 84 72 84H354C392.66 84 424 115.34 424 154V230C424 232.761 421.761 235 419 235H7C4.23857 235 2 232.761 2 230V154Z" fill="#3E7E9C"/>
<rect x="8" y="227" width="410" height="174" rx="5" fill="#833295"/>
<path d="M2 390C2 387.239 4.23858 385 7 385H419C421.761 385 424 387.239 424 390V521C424 529.284 417.284 536 409 536H17C8.71574 536 2 529.284 2 521V390Z" fill="#3E7E9C"/>
<path d="M95.6 313.85V351.35H113.15C115.85 351.35 118.1 350.9 119.9 350C121.8 349 123.3 347.7 124.4 346.1C125.5 344.4 126.25 342.45 126.65 340.25C127.15 337.95 127.4 335.55 127.4 333.05C127.4 330.45 127.15 328 126.65 325.7C126.25 323.3 125.5 321.25 124.4 319.55C123.3 317.75 121.8 316.35 119.9 315.35C118.1 314.35 115.85 313.85 113.15 313.85H95.6ZM123.95 284.9C123.75 282.5 123.3 280.2 122.6 278C122 275.7 121.05 273.7 119.75 272C118.55 270.2 117.05 268.8 115.25 267.8C113.45 266.7 111.35 266.15 108.95 266.15C107.95 266.15 106.4 266.3 104.3 266.6C102.3 266.9 99.4 267.85 95.6 269.45V303.35H109.7C112.5 303.35 114.8 302.85 116.6 301.85C118.4 300.85 119.85 299.55 120.95 297.95C122.05 296.25 122.8 294.3 123.2 292.1C123.7 289.8 123.95 287.4 123.95 284.9ZM110.15 255.5C113.45 255.5 115.95 255.9 117.65 256.7C119.45 257.4 120.7 258 121.4 258.5C121.5 258.6 121.55 258.65 121.55 258.65C125.15 260.85 128.3 264.25 131 268.85C133.7 273.35 135.05 278.5 135.05 284.3C135.05 286.5 134.95 288.7 134.75 290.9C134.65 293 134.3 295.1 133.7 297.2C133.1 299.2 132.2 301.2 131 303.2C129.9 305.1 128.35 306.9 126.35 308.6C128.95 310.4 131 312.25 132.5 314.15C134.1 316.05 135.3 318 136.1 320C136.9 322 137.4 324.1 137.6 326.3C137.9 328.4 138.05 330.65 138.05 333.05C138.15 336.15 137.85 339 137.15 341.6C136.55 344.2 135.8 346.5 134.9 348.5C134 350.4 133.1 351.95 132.2 353.15C131.3 354.35 130.65 355.1 130.25 355.4C128.45 357.1 126.2 358.65 123.5 360.05C120.8 361.35 117.35 362 113.15 362H85.25V261.5C89.15 260 92.6 258.85 95.6 258.05C98.6 257.15 100.7 256.6 101.9 256.4C104.6 255.8 107.35 255.5 110.15 255.5ZM164.838 333.35C164.838 336.35 165.338 339.05 166.338 341.45C167.338 343.85 168.688 345.9 170.388 347.6C172.088 349.3 174.038 350.65 176.238 351.65C178.538 352.55 180.888 353.05 183.288 353.15C183.988 353.15 184.688 353.1 185.388 353C186.088 352.9 186.938 352.7 187.938 352.4C189.038 352 190.388 351.5 191.988 350.9C193.588 350.3 195.638 349.5 198.138 348.5L202.938 346.4L206.988 356.75L193.938 361.4C192.238 362 190.388 362.5 188.388 362.9C186.388 363.3 184.688 363.5 183.288 363.5C179.488 363.5 175.838 362.85 172.338 361.55C168.938 360.15 165.938 358.2 163.338 355.7C160.738 353.1 158.688 350 157.188 346.4C155.688 342.7 154.938 338.6 154.938 334.1V286.55C154.938 282.45 155.688 278.55 157.188 274.85C158.688 271.05 160.338 268.15 162.138 266.15C163.738 264.25 165.138 262.8 166.338 261.8C167.638 260.8 168.938 259.9 170.238 259.1L170.988 258.8L170.538 258.95C171.638 258.35 173.188 257.65 175.188 256.85C177.288 255.95 180.088 255.5 183.588 255.5C185.088 255.5 186.838 255.75 188.838 256.25C190.838 256.75 192.588 257.25 194.088 257.75L206.688 262.55L203.238 272.3L189.438 267.05C188.438 266.65 187.438 266.3 186.438 266C185.438 265.7 184.538 265.55 183.738 265.55C181.238 265.55 178.838 266.15 176.538 267.35C174.338 268.55 172.388 270.15 170.688 272.15C168.988 274.05 167.638 276.25 166.638 278.75C165.638 281.25 165.138 283.85 165.138 286.55L164.838 333.35ZM246.499 268.55H246.349C244.349 277.65 242.349 286.65 240.349 295.55C238.449 304.35 236.499 313.3 234.499 322.4H258.049L246.499 268.55ZM225.349 361.85H215.149L239.149 256.85H253.399L277.399 361.85H267.349L260.749 333.2H231.799L225.349 361.85ZM315.932 268.55H315.782C313.782 277.65 311.782 286.65 309.782 295.55C307.882 304.35 305.932 313.3 303.932 322.4H327.482L315.932 268.55ZM294.782 361.85H284.582L308.582 256.85H322.832L346.832 361.85H336.782L330.182 333.2H301.232L294.782 361.85Z" fill="white"/>
<path d="M5 389H421" stroke="#3E347B" stroke-width="10" stroke-linecap="round"/>
<path d="M5 223H421" stroke="#3E347B" stroke-width="10" stroke-linecap="round"/>
<rect x="128" y="69" width="170" height="15" rx="5" fill="#6296A4"/>
<rect x="84" width="259" height="69" rx="25" fill="#FCEA03"/>
</svg>
