<svg width="371" height="577" viewBox="0 0 371 577" fill="none" xmlns="http://www.w3.org/2000/svg">
<path fill-rule="evenodd" clip-rule="evenodd" d="M68.339 26C68.339 12.1929 79.5319 1 93.339 1H277.644C291.451 1 302.644 12.1929 302.644 26V76.4237C302.644 81.9466 298.167 86.4237 292.644 86.4237H78.339C72.8161 86.4237 68.339 81.9466 68.339 76.4237V26ZM0 151.068C0 123.454 22.3858 101.068 50 101.068H87.8644V88.8644H283.119V101.068H320.983C348.597 101.068 370.983 123.454 370.983 151.068V562C370.983 570.284 364.267 577 355.983 577H15C6.71571 577 0 570.284 0 562V151.068Z" fill="#2D2D2D"/>
<rect y="185" width="371" height="309" fill="#4886E3"/>
<rect x="47" y="282" width="287" height="110" rx="25" fill="#2D2D2D"/>
<path d="M77 352.9C77 354.9 77.3333 356.7 78 358.3C78.6667 359.9 79.5667 361.267 80.7 362.4C81.8333 363.533 83.1333 364.433 84.6 365.1C86.1333 365.7 87.7 366.033 89.3 366.1C89.7667 366.1 90.2333 366.067 90.7 366C91.1667 365.933 91.7333 365.8 92.4 365.6C93.1333 365.333 94.0333 365 95.1 364.6C96.1667 364.2 97.5333 363.667 99.2 363L102.4 361.6L105.1 368.5L96.4 371.6C95.2667 372 94.0333 372.333 92.7 372.6C91.3667 372.867 90.2333 373 89.3 373C86.7667 373 84.3333 372.567 82 371.7C79.7333 370.767 77.7333 369.467 76 367.8C74.2667 366.067 72.9 364 71.9 361.6C70.9 359.133 70.4 356.4 70.4 353.4V321.7C70.4 318.967 70.9 316.367 71.9 313.9C72.9 311.367 74 309.433 75.2 308.1C76.2667 306.833 77.2 305.867 78 305.2C78.8667 304.533 79.7333 303.933 80.6 303.4L81.1 303.2L80.8 303.3C81.5333 302.9 82.5667 302.433 83.9 301.9C85.3 301.3 87.1667 301 89.5 301C90.5 301 91.6667 301.167 93 301.5C94.3333 301.833 95.5 302.167 96.5 302.5L104.9 305.7L102.6 312.2L93.4 308.7C92.7333 308.433 92.0667 308.2 91.4 308C90.7333 307.8 90.1333 307.7 89.6 307.7C87.9333 307.7 86.3333 308.1 84.8 308.9C83.3333 309.7 82.0333 310.767 80.9 312.1C79.7667 313.367 78.8667 314.833 78.2 316.5C77.5333 318.167 77.2 319.9 77.2 321.7L77 352.9ZM131.441 309.7H131.341C130.007 315.767 128.674 321.767 127.341 327.7C126.074 333.567 124.774 339.533 123.441 345.6H139.141L131.441 309.7ZM117.341 371.9H110.541L126.541 301.9H136.041L152.041 371.9H145.341L140.941 352.8H121.641L117.341 371.9ZM198.73 351.2C198.73 354 198.23 356.667 197.23 359.2C196.23 361.733 194.863 363.933 193.13 365.8C191.396 367.667 189.363 369.167 187.03 370.3C184.696 371.367 182.163 371.9 179.43 371.9C176.83 371.9 174.263 371.567 171.73 370.9C169.196 370.167 166.93 369.367 164.93 368.5C162.596 367.5 160.396 366.367 158.33 365.1L160.73 358.5C163.063 359.7 165.33 360.733 167.53 361.6C169.463 362.4 171.496 363.133 173.63 363.8C175.763 364.4 177.663 364.7 179.33 364.7C181.063 364.7 182.696 364.367 184.23 363.7C185.763 362.967 187.063 362 188.13 360.8C189.263 359.6 190.13 358.2 190.73 356.6C191.396 355 191.73 353.267 191.73 351.4C191.73 349.533 191.296 347.967 190.43 346.7C189.563 345.433 188.43 344.4 187.03 343.6C185.696 342.733 184.196 342.067 182.53 341.6C180.93 341.133 179.363 340.767 177.83 340.5C175.296 340.1 172.93 339.4 170.73 338.4C168.53 337.333 166.596 336 164.93 334.4C163.33 332.8 162.03 330.933 161.03 328.8C160.096 326.6 159.63 324.133 159.63 321.4C159.63 318.6 160.13 315.967 161.13 313.5C162.13 311.033 163.496 308.9 165.23 307.1C166.963 305.233 168.963 303.767 171.23 302.7C173.563 301.567 176.03 301 178.63 301C180.23 301 181.896 301.2 183.63 301.6C185.363 301.933 186.996 302.333 188.53 302.8C190.263 303.333 191.996 303.933 193.73 304.6L191.53 311.4C189.996 310.8 188.463 310.267 186.93 309.8C185.596 309.4 184.163 309.033 182.63 308.7C181.163 308.3 179.763 308.1 178.43 308.1C176.763 308.1 175.196 308.467 173.73 309.2C172.263 309.933 170.996 310.9 169.93 312.1C168.863 313.3 168.03 314.7 167.43 316.3C166.83 317.833 166.53 319.433 166.53 321.1C166.53 323.033 166.93 324.733 167.73 326.2C168.53 327.6 169.53 328.8 170.73 329.8C171.996 330.8 173.363 331.6 174.83 332.2C176.296 332.8 177.696 333.233 179.03 333.5C181.763 333.967 184.33 334.633 186.73 335.5C189.13 336.367 191.196 337.5 192.93 338.9C194.73 340.3 196.13 342 197.13 344C198.196 346 198.73 348.4 198.73 351.2ZM237.709 302V309H215.609V333.3H232.909V340.3H215.609V364.8H237.909V371.9H208.709V302H237.709ZM249.725 302H256.225V372H249.725V302ZM311.805 302V372H301.205L277.905 314.9H277.805V372H271.405V302H279.605L305.105 363.9H305.305V302H311.805Z" fill="white"/>
<line x1="90.7902" y1="1.03089" x2="98.1984" y2="85.7074" stroke="white" stroke-width="3"/>
<line x1="120.79" y1="1.03089" x2="128.198" y2="85.7074" stroke="white" stroke-width="3"/>
<line x1="150.79" y1="1.03089" x2="158.198" y2="85.7074" stroke="white" stroke-width="3"/>
<line x1="180.79" y1="1.03089" x2="188.198" y2="85.7074" stroke="white" stroke-width="3"/>
<line x1="210.79" y1="1.03089" x2="218.198" y2="85.7074" stroke="white" stroke-width="3"/>
<line x1="240.79" y1="1.03089" x2="248.198" y2="85.7074" stroke="white" stroke-width="3"/>
<line x1="270.79" y1="1.03089" x2="278.198" y2="85.7074" stroke="white" stroke-width="3"/>
<path d="M62 277H319.008" stroke="white" stroke-width="5" stroke-linecap="round"/>
<path d="M62 397H319.008" stroke="white" stroke-width="5" stroke-linecap="round"/>
</svg>
