<svg width="443" height="536" viewBox="0 0 443 536" fill="none" xmlns="http://www.w3.org/2000/svg">
<path d="M66.5902 41.3927C66.5902 31.706 74.4358 23.8534 84.1139 23.8534H362.391C372.069 23.8534 379.915 31.706 379.915 41.3927V50.5131C379.915 60.1998 372.069 68.0524 362.391 68.0524H84.1139C74.4358 68.0524 66.5902 60.1998 66.5902 50.5131V41.3927Z" fill="#5C5C5C"/>
<path d="M0 496.01C0 490.198 4.70739 485.487 10.5142 485.487H432.486C438.293 485.487 443 490.198 443 496.01V525.476C443 531.288 438.293 536 432.486 536H10.5142C4.70738 536 0 531.288 0 525.476V496.01Z" fill="#2D2D2D"/>
<path d="M0 64.5445C0 58.7325 4.70739 54.0209 10.5142 54.0209H432.486C438.293 54.0209 443 58.7325 443 64.5445V94.0105C443 99.8225 438.293 104.534 432.486 104.534H10.5142C4.70738 104.534 0 99.8225 0 94.0105V64.5445Z" fill="#2D2D2D"/>
<path d="M11.9161 103.832H431.785V485.487H11.9161V103.832Z" fill="#833295"/>
<path d="M11.9161 195.037C11.9161 189.225 16.6235 184.513 22.4304 184.513H421.271C427.077 184.513 431.785 189.225 431.785 195.037V384.461C431.785 390.273 427.077 394.984 421.271 394.984H22.4304C16.6235 394.984 11.9161 390.273 11.9161 384.461V195.037Z" fill="#F9C80A"/>
<path d="M58.5293 306.13C58.5293 308.235 58.8797 310.129 59.5807 311.813C60.2816 313.497 61.2279 314.935 62.4195 316.128C63.6112 317.32 64.978 318.268 66.5201 318.969C68.1323 319.601 69.7795 319.951 71.4618 320.021C71.9525 320.021 72.4431 319.986 72.9338 319.916C73.4244 319.846 74.0203 319.706 74.7212 319.495C75.4922 319.215 76.4385 318.864 77.56 318.443C78.6816 318.022 80.1185 317.461 81.8709 316.759L85.2354 315.286L88.0743 322.547L78.9269 325.809C77.7353 326.23 76.4385 326.581 75.0366 326.862C73.6347 327.142 72.4431 327.283 71.4618 327.283C68.7982 327.283 66.2397 326.827 63.7864 325.915C61.4032 324.932 59.3003 323.564 57.4778 321.81C55.6554 319.986 54.2184 317.812 53.167 315.286C52.1156 312.69 51.5899 309.814 51.5899 306.657V273.297C51.5899 270.42 52.1156 267.684 53.167 265.088C54.2184 262.423 55.375 260.388 56.6367 258.985C57.7582 257.652 58.7396 256.635 59.5807 255.933C60.4919 255.231 61.4032 254.6 62.3144 254.039L62.8401 253.828L62.5247 253.933C63.2957 253.513 64.3822 253.021 65.7841 252.46C67.2561 251.829 69.2187 251.513 71.6721 251.513C72.7235 251.513 73.9502 251.688 75.3521 252.039C76.754 252.39 77.9806 252.741 79.032 253.092L87.864 256.459L85.4457 263.299L75.7726 259.616C75.0717 259.336 74.3707 259.09 73.6698 258.88C72.9688 258.669 72.338 258.564 71.7772 258.564C70.0248 258.564 68.3426 258.985 66.7304 259.827C65.1883 260.669 63.8214 261.791 62.6298 263.194C61.4382 264.527 60.4919 266.071 59.791 267.825C59.09 269.579 58.7396 271.403 58.7396 273.297L58.5293 306.13Z" fill="white"/>
<path d="M116.926 258.985C115.805 258.985 114.613 259.125 113.351 259.406C112.089 259.616 110.933 259.862 109.881 260.142C108.62 260.493 107.393 260.879 106.201 261.3V289.187H116.926C121.692 289.187 125.513 287.784 128.387 284.978C131.26 282.172 132.697 278.138 132.697 272.876C132.697 270.35 132.312 268.21 131.541 266.457C130.77 264.632 129.683 263.194 128.281 262.142C126.88 261.019 125.197 260.213 123.235 259.721C121.342 259.23 119.239 258.985 116.926 258.985ZM141.214 326.23H134.064L121.237 296.449C120.676 296.519 120.08 296.589 119.449 296.659C118.819 296.659 118.223 296.659 117.662 296.659H106.096V326.23H99.157V255.828C101.12 255.056 103.152 254.354 105.255 253.723C107.078 253.162 109.075 252.671 111.248 252.25C113.421 251.759 115.594 251.513 117.767 251.513C120.711 251.513 123.515 252.004 126.179 252.986C128.842 253.898 131.19 255.302 133.223 257.196C135.256 259.02 136.868 261.265 138.06 263.931C139.321 266.527 139.952 269.508 139.952 272.876C139.952 275.191 139.672 277.471 139.111 279.716C138.55 281.891 137.744 283.961 136.693 285.925C135.711 287.819 134.485 289.503 133.013 290.976C131.611 292.45 130.069 293.607 128.387 294.449L141.214 326.23Z" fill="white"/>
<path d="M182.941 252.565V259.932H159.704V285.504H177.894V292.871H159.704V318.653H183.151V326.125H152.449V252.565H182.941Z" fill="white"/>
<path d="M212.082 260.669H211.976C210.574 267.053 209.173 273.367 207.771 279.611C206.439 285.785 205.072 292.064 203.67 298.448H220.178L212.082 260.669ZM197.256 326.125H190.107L206.93 252.46H216.918L233.741 326.125H226.696L222.07 306.025H201.778L197.256 326.125Z" fill="white"/>
<path d="M274.726 259.616H258.219V326.23H251.174V259.616H234.141V252.565H274.726V259.616Z" fill="white"/>
<path d="M284.596 252.565H291.43V326.23H284.596V252.565Z" fill="white"/>
<path d="M349.868 252.565V326.23H338.723L314.225 266.141H314.12V326.23H307.391V252.565H316.012L342.824 317.706H343.034V252.565H349.868Z" fill="white"/>
<path d="M396.306 252.565V259.932H373.069V285.504H391.259V292.871H373.069V318.653H396.516V326.125H365.815V252.565H396.306Z" fill="white"/>
<path d="M53.2722 17.5393C53.2722 7.8526 61.1178 0 70.7959 0H372.204C381.882 0 389.728 7.8526 389.728 17.5393V29.466C389.728 39.1526 381.882 47.0052 372.204 47.0052H70.7959C61.1178 47.0052 53.2722 39.1526 53.2722 29.466V17.5393Z" fill="#2D2D2D"/>
</svg>
