<svg width="371" height="577" viewBox="0 0 371 577" fill="none" xmlns="http://www.w3.org/2000/svg">
<path fill-rule="evenodd" clip-rule="evenodd" d="M68.339 26C68.339 12.1929 79.5319 1 93.339 1H277.644C291.451 1 302.644 12.1929 302.644 26V76.4237C302.644 81.9466 298.167 86.4237 292.644 86.4237H78.339C72.8161 86.4237 68.339 81.9466 68.339 76.4237V26ZM0 151.068C0 123.454 22.3858 101.068 50 101.068H87.8644V88.8644H283.119V101.068H320.983C348.597 101.068 370.983 123.454 370.983 151.068V562C370.983 570.284 364.267 577 355.983 577H15C6.71571 577 0 570.284 0 562V151.068Z" fill="#2D2D2D"/>
<rect y="185" width="371" height="309" fill="#ED302E"/>
<rect x="25" y="282" width="331" height="110" rx="25" fill="#2D2D2D"/>
<path d="M60.4 308.1C59.3333 308.1 58.2 308.233 57 308.5C55.8 308.7 54.7 308.967 53.7 309.3C52.5 309.633 51.3333 310 50.2 310.4V336.9H60.4C64.9333 336.9 68.5667 335.667 71.3 333.2C74.0333 330.667 75.4 326.933 75.4 322C75.4 317.133 74 313.6 71.2 311.4C68.4 309.2 64.8 308.1 60.4 308.1ZM61.2 301C64 301 66.6667 301.5 69.2 302.5C71.7333 303.5 73.9667 304.933 75.9 306.8C77.8333 308.6 79.3667 310.8 80.5 313.4C81.7 315.933 82.3 318.8 82.3 322C82.3 325.2 81.7667 328.167 80.7 330.9C79.6333 333.567 78.1333 335.9 76.2 337.9C74.3333 339.833 72.1 341.333 69.5 342.4C66.9 343.467 64.1 344 61.1 344H50.1V372H43.5V305.1C45.3 304.367 47.2 303.7 49.2 303.1C50.9333 302.567 52.8333 302.1 54.9 301.7C56.9667 301.233 59.0667 301 61.2 301ZM109.716 308.1C108.65 308.1 107.516 308.233 106.316 308.5C105.116 308.7 104.016 308.933 103.016 309.2C101.816 309.533 100.65 309.9 99.5164 310.3V336.8H109.716C114.25 336.8 117.883 335.467 120.616 332.8C123.35 330.133 124.716 326.3 124.716 321.3C124.716 318.9 124.35 316.867 123.616 315.2C122.883 313.467 121.85 312.1 120.516 311.1C119.183 310.033 117.583 309.267 115.716 308.8C113.916 308.333 111.916 308.1 109.716 308.1ZM132.816 372H126.016L113.816 343.7C113.283 343.767 112.716 343.833 112.116 343.9C111.516 343.9 110.95 343.9 110.416 343.9H99.4164V372H92.8164V305.1C94.6831 304.367 96.6164 303.7 98.6164 303.1C100.35 302.567 102.25 302.1 104.316 301.7C106.383 301.233 108.45 301 110.516 301C113.316 301 115.983 301.467 118.516 302.4C121.05 303.267 123.283 304.6 125.216 306.4C127.15 308.133 128.683 310.267 129.816 312.8C131.016 315.267 131.616 318.1 131.616 321.3C131.616 323.5 131.35 325.667 130.816 327.8C130.283 329.867 129.516 331.833 128.516 333.7C127.583 335.5 126.416 337.1 125.016 338.5C123.683 339.9 122.216 341 120.616 341.8L132.816 372ZM174.702 320C174.702 317.533 174.236 315.567 173.302 314.1C172.369 312.567 171.202 311.4 169.802 310.6C168.469 309.733 167.069 309.167 165.602 308.9C164.136 308.633 162.902 308.5 161.902 308.5C160.902 308.5 159.669 308.667 158.202 309C156.736 309.267 155.336 309.833 154.002 310.7C152.669 311.5 151.502 312.667 150.502 314.2C149.569 315.667 149.102 317.633 149.102 320.1V354.5C149.102 357.033 149.569 359.033 150.502 360.5C151.502 361.9 152.669 363 154.002 363.8C155.336 364.533 156.736 365 158.202 365.2C159.669 365.4 160.902 365.5 161.902 365.5C162.902 365.5 164.136 365.4 165.602 365.2C167.069 364.933 168.469 364.433 169.802 363.7C171.202 362.9 172.369 361.8 173.302 360.4C174.236 358.933 174.702 356.967 174.702 354.5V320ZM181.402 354.5C181.402 355.967 181.102 357.767 180.502 359.9C179.969 361.967 178.936 363.967 177.402 365.9C175.936 367.833 173.936 369.5 171.402 370.9C168.869 372.233 165.669 372.9 161.802 372.9C158.002 372.9 154.869 372.233 152.402 370.9C149.936 369.5 147.936 367.833 146.402 365.9C144.936 363.967 143.902 361.967 143.302 359.9C142.702 357.767 142.402 355.967 142.402 354.5V320.1C142.402 318.633 142.669 316.833 143.202 314.7C143.802 312.5 144.836 310.4 146.302 308.4C147.769 306.4 149.769 304.7 152.302 303.3C154.836 301.833 158.036 301.1 161.902 301.1C165.702 301.1 168.836 301.8 171.302 303.2C173.836 304.6 175.836 306.3 177.302 308.3C178.836 310.3 179.902 312.4 180.502 314.6C181.102 316.733 181.402 318.533 181.402 320V354.5ZM227.572 308.7H211.872V372H205.172V308.7H188.972V302H227.572V308.7ZM265.959 302V309H243.859V333.3H261.159V340.3H243.859V364.8H266.159V371.9H236.959V302H265.959ZM277.975 302H284.475V372H277.975V302ZM340.055 302V372H329.455L306.155 314.9H306.055V372H299.655V302H307.855L333.355 363.9H333.555V302H340.055Z" fill="white"/>
<line x1="90.7902" y1="1.03089" x2="98.1984" y2="85.7074" stroke="white" stroke-width="3"/>
<line x1="120.79" y1="1.03089" x2="128.198" y2="85.7074" stroke="white" stroke-width="3"/>
<line x1="150.79" y1="1.03089" x2="158.198" y2="85.7074" stroke="white" stroke-width="3"/>
<line x1="180.79" y1="1.03089" x2="188.198" y2="85.7074" stroke="white" stroke-width="3"/>
<line x1="210.79" y1="1.03089" x2="218.198" y2="85.7074" stroke="white" stroke-width="3"/>
<line x1="240.79" y1="1.03089" x2="248.198" y2="85.7074" stroke="white" stroke-width="3"/>
<line x1="270.79" y1="1.03089" x2="278.198" y2="85.7074" stroke="white" stroke-width="3"/>
<path d="M42 277H339" stroke="white" stroke-width="5" stroke-linecap="round"/>
<path d="M42 397H339" stroke="white" stroke-width="5" stroke-linecap="round"/>
</svg>
